{
  "source": "C:\\Users\\Peter\\Desktop\\stuff\\MIUN\\quantitative_research\\video_compression\\videos\\UVG\\ShakeNDry_1920x1080_120fps_420_8bit_YUV.y4m",
  "output": "C:\\Users\\Peter\\Desktop\\stuff\\MIUN\\quantitative_research\\video_compression\\compressed_videos\\UVG\\vp9\\8\\ShakeNDry_1920x1080_120fps_420_8bit_YUV_vp9.webm",
  "codec": "vp9",
  "ok": "[yuv4mpegpipe @ 00000111152b52c0] Stream #0: not enough frames to estimate rate; consider increasing probesize\nInput #0, yuv4mpegpipe, from 'C:\\Users\\Peter\\Desktop\\stuff\\MIUN\\quantitative_research\\video_compression\\videos\\UVG\\ShakeNDry_1920x1080_120fps_420_8bit_YUV.y4m':\n  Duration: 00:00:02.50, start: 0.000000, bitrate: 2985989 kb/s\n  Stream #0:0: Video: rawvideo (I420 / 0x30323449), yuv420p(progressive), 1920x1080, 120 fps, 120 tbr, 120 tbn\n[out#0/webm @ 00000111152b9b80] Codec AVOption b:a (set bitrate (in bits/s)) has not been used for any stream. The most likely reason is either wrong type (e.g. a video option with no video streams) or that it is a private option of some decoder which was not actually used for any stream.\nStream mapping:\n  Stream #0:0 -> #0:0 (rawvideo (native) -> vp9 (libvpx-vp9))\nPress [q] to stop, [?] for help\n[libvpx-vp9 @ 00000111152bcec0] v1.15.2-100-g40561f514\nOutput #0, webm, to 'C:\\Users\\Peter\\Desktop\\stuff\\MIUN\\quantitative_research\\video_compression\\compressed_videos\\UVG\\vp9\\8\\ShakeNDry_1920x1080_120fps_420_8bit_YUV_vp9.webm':\n  Metadata:\n    encoder         : Lavf62.3.100\n  Stream #0:0: Video: vp9, yuv420p(tv, progressive), 1920x1080, q=2-31, 8000 kb/s, 120 fps, 1k tbn\n    Metadata:\n      encoder         : Lavc62.11.100 libvpx-vp9\n    Side data:\n      cpb: bitrate max/min/avg: 0/0/0 buffer size: 8000000 vbv_delay: N/A\nframe=    2 fps=0.0 q=48.0 size=       0KiB time=00:00:00.01 bitrate= 230.9kbits/s speed=0.0327x elapsed=0:00:00.51    \nframe=    7 fps=6.7 q=52.0 size=       0KiB time=00:00:00.05 bitrate=  66.0kbits/s speed=0.0554x elapsed=0:00:01.05    \nframe=   12 fps=7.6 q=51.0 size=       0KiB time=00:00:00.10 bitrate=  38.5kbits/s speed=0.0637x elapsed=0:00:01.56    \nframe=   17 fps=8.1 q=51.0 size=       0KiB time=00:00:00.14 bitrate=  27.2kbits/s speed=0.0678x elapsed=0:00:02.09    \nframe=   21 fps=8.0 q=51.0 size=       0KiB time=00:00:00.17 bitrate=  22.0kbits/s speed=0.0667x elapsed=0:00:02.62    \nframe=   26 fps=8.2 q=51.0 size=       0KiB time=00:00:00.21 bitrate=  17.8kbits/s speed=0.0687x elapsed=0:00:03.15    \nframe=   30 fps=8.1 q=51.0 size=       0KiB time=00:00:00.25 bitrate=  15.4kbits/s speed=0.0679x elapsed=0:00:03.68    \nframe=   34 fps=8.1 q=51.0 size=       0KiB time=00:00:00.28 bitrate=  13.6kbits/s speed=0.0674x elapsed=0:00:04.20    \nframe=   39 fps=8.3 q=51.0 size=       0KiB time=00:00:00.32 bitrate=  11.8kbits/s speed=0.0688x elapsed=0:00:04.72    \nframe=   43 fps=8.2 q=51.0 size=       0KiB time=00:00:00.35 bitrate=  10.7kbits/s speed=0.0684x elapsed=0:00:05.23    \nframe=   47 fps=8.2 q=51.0 size=       0KiB time=00:00:00.39 bitrate=   9.8kbits/s speed=0.0681x elapsed=0:00:05.75    \nframe=   52 fps=8.3 q=51.0 size=       0KiB time=00:00:00.43 bitrate=   8.9kbits/s speed=0.069x elapsed=0:00:06.27    \nframe=   56 fps=8.2 q=51.0 size=       0KiB time=00:00:00.46 bitrate=   8.2kbits/s speed=0.0685x elapsed=0:00:06.80    \nframe=   60 fps=8.2 q=51.0 size=       0KiB time=00:00:00.50 bitrate=   7.7kbits/s speed=0.0683x elapsed=0:00:07.32    \nframe=   65 fps=8.3 q=51.0 size=       0KiB time=00:00:00.54 bitrate=   7.1kbits/s speed=0.069x elapsed=0:00:07.85    \nframe=   70 fps=8.4 q=51.0 size=       0KiB time=00:00:00.58 bitrate=   6.6kbits/s speed=0.0697x elapsed=0:00:08.36    \nframe=   75 fps=8.4 q=51.0 size=       0KiB time=00:00:00.62 bitrate=   6.2kbits/s speed=0.0702x elapsed=0:00:08.90    \nframe=   79 fps=8.4 q=51.0 size=       0KiB time=00:00:00.65 bitrate=   5.8kbits/s speed=0.0699x elapsed=0:00:09.41    \nframe=   84 fps=8.4 q=50.0 size=       0KiB time=00:00:00.70 bitrate=   5.5kbits/s speed=0.0704x elapsed=0:00:09.94    \nframe=   89 fps=8.5 q=50.0 size=       0KiB time=00:00:00.74 bitrate=   5.2kbits/s speed=0.0709x elapsed=0:00:10.46    \nframe=   92 fps=8.4 q=50.0 size=       0KiB time=00:00:00.76 bitrate=   5.0kbits/s speed=0.0697x elapsed=0:00:11.00    \nframe=   97 fps=8.4 q=49.0 size=       0KiB time=00:00:00.80 bitrate=   4.8kbits/s speed=0.0702x elapsed=0:00:11.52    \nframe=  102 fps=8.5 q=49.0 size=       0KiB time=00:00:00.85 bitrate=   4.5kbits/s speed=0.0705x elapsed=0:00:12.05    \nframe=  105 fps=8.3 q=48.0 size=       0KiB time=00:00:00.87 bitrate=   4.4kbits/s speed=0.0696x elapsed=0:00:12.57    \nframe=  110 fps=8.4 q=49.0 size=       0KiB time=00:00:00.91 bitrate=   4.2kbits/s speed=0.07x elapsed=0:00:13.09    \nframe=  115 fps=8.5 q=49.0 size=       0KiB time=00:00:00.95 bitrate=   4.0kbits/s speed=0.0705x elapsed=0:00:13.59    \nframe=  118 fps=8.4 q=48.0 size=       0KiB time=00:00:00.98 bitrate=   3.9kbits/s speed=0.0696x elapsed=0:00:14.12    \nframe=  123 fps=8.4 q=48.0 size=       0KiB time=00:00:01.02 bitrate=   3.8kbits/s speed=0.0701x elapsed=0:00:14.62    \nframe=  128 fps=8.5 q=47.0 size=       0KiB time=00:00:01.06 bitrate=   3.6kbits/s speed=0.0704x elapsed=0:00:15.14    \nframe=  133 fps=8.5 q=46.0 size=     768KiB time=00:00:01.10 bitrate=5676.5kbits/s speed=0.0708x elapsed=0:00:15.66    \nframe=  138 fps=8.5 q=45.0 size=     768KiB time=00:00:01.15 bitrate=5470.8kbits/s speed=0.0711x elapsed=0:00:16.17    \nframe=  143 fps=8.6 q=44.0 size=     768KiB time=00:00:01.19 bitrate=5279.5kbits/s speed=0.0714x elapsed=0:00:16.69    \nframe=  148 fps=8.6 q=42.0 size=     768KiB time=00:00:01.23 bitrate=5101.2kbits/s speed=0.0715x elapsed=0:00:17.24    \nframe=  154 fps=8.7 q=41.0 size=     768KiB time=00:00:01.28 bitrate=4902.4kbits/s speed=0.0723x elapsed=0:00:17.75    \nframe=  158 fps=8.6 q=40.0 size=     768KiB time=00:00:01.31 bitrate=4778.3kbits/s speed=0.0721x elapsed=0:00:18.26    \nframe=  163 fps=8.7 q=39.0 size=     768KiB time=00:00:01.35 bitrate=4631.7kbits/s speed=0.0723x elapsed=0:00:18.78    \nframe=  169 fps=8.8 q=38.0 size=     768KiB time=00:00:01.40 bitrate=4467.3kbits/s speed=0.0729x elapsed=0:00:19.30    \nframe=  173 fps=8.7 q=37.0 size=     768KiB time=00:00:01.44 bitrate=4364.0kbits/s speed=0.0727x elapsed=0:00:19.82    \nframe=  179 fps=8.8 q=37.0 size=     768KiB time=00:00:01.49 bitrate=4217.7kbits/s speed=0.0733x elapsed=0:00:20.33    \nframe=  185 fps=8.9 q=37.0 size=     768KiB time=00:00:01.54 bitrate=4080.9kbits/s speed=0.0739x elapsed=0:00:20.84    \nframe=  189 fps=8.8 q=20.0 size=     768KiB time=00:00:01.57 bitrate=3994.6kbits/s speed=0.0737x elapsed=0:00:21.36    \nframe=  196 fps=9.0 q=36.0 size=     768KiB time=00:00:01.63 bitrate=3851.9kbits/s speed=0.0746x elapsed=0:00:21.88    \nframe=  201 fps=9.0 q=36.0 size=     768KiB time=00:00:01.67 bitrate=3756.1kbits/s speed=0.0748x elapsed=0:00:22.40    \nframe=  205 fps=8.9 q=35.0 size=     768KiB time=00:00:01.70 bitrate=3682.8kbits/s speed=0.0745x elapsed=0:00:22.92    \nframe=  212 fps=9.0 q=35.0 size=     768KiB time=00:00:01.76 bitrate=3561.2kbits/s speed=0.0754x elapsed=0:00:23.43    \nframe=  218 fps=9.1 q=35.0 size=     768KiB time=00:00:01.81 bitrate=3463.2kbits/s speed=0.0758x elapsed=0:00:23.96    \nframe=  223 fps=9.1 q=33.0 size=     768KiB time=00:00:01.85 bitrate=3385.5kbits/s speed=0.0759x elapsed=0:00:24.48    \nframe=  229 fps=9.2 q=33.0 size=     768KiB time=00:00:01.90 bitrate=3296.8kbits/s speed=0.0763x elapsed=0:00:25.01    \nframe=  233 fps=9.1 q=34.0 size=     768KiB time=00:00:01.94 bitrate=3240.2kbits/s speed=0.0761x elapsed=0:00:25.52    \nframe=  240 fps=9.2 q=36.0 size=     768KiB time=00:00:02.00 bitrate=3145.7kbits/s speed=0.0768x elapsed=0:00:26.04    \nframe=  244 fps=9.2 q=35.0 size=     768KiB time=00:00:02.03 bitrate=3094.2kbits/s speed=0.0766x elapsed=0:00:26.55    \nframe=  250 fps=9.2 q=32.0 size=     768KiB time=00:00:02.08 bitrate=3019.9kbits/s speed=0.0769x elapsed=0:00:27.07    \nframe=  256 fps=9.3 q=33.0 size=     768KiB time=00:00:02.13 bitrate=2949.1kbits/s speed=0.0773x elapsed=0:00:27.58    \nframe=  261 fps=9.3 q=32.0 size=    1792KiB time=00:00:02.17 bitrate=6749.5kbits/s speed=0.0774x elapsed=0:00:28.10    \nframe=  268 fps=9.4 q=31.0 size=    1792KiB time=00:00:02.23 bitrate=6573.2kbits/s speed=0.078x elapsed=0:00:28.61    \nframe=  271 fps=9.3 q=31.0 size=    1792KiB time=00:00:02.25 bitrate=6500.4kbits/s speed=0.0775x elapsed=0:00:29.13    \nframe=  276 fps=9.3 q=30.0 size=    1792KiB time=00:00:02.30 bitrate=6382.6kbits/s speed=0.0776x elapsed=0:00:29.64    \nframe=  276 fps=9.1 q=30.0 size=    1792KiB time=00:00:02.30 bitrate=6382.6kbits/s speed=0.0762x elapsed=0:00:30.18    \nframe=  276 fps=9.0 q=30.0 size=    1792KiB time=00:00:02.30 bitrate=6382.6kbits/s speed=0.0749x elapsed=0:00:30.72    \nframe=  276 fps=8.8 q=30.0 size=    1792KiB time=00:00:02.30 bitrate=6382.6kbits/s speed=0.0736x elapsed=0:00:31.24    \nframe=  276 fps=8.7 q=30.0 size=    1792KiB time=00:00:02.30 bitrate=6382.6kbits/s speed=0.0724x elapsed=0:00:31.75    \nframe=  276 fps=8.5 q=30.0 size=    1792KiB time=00:00:02.30 bitrate=6382.6kbits/s speed=0.0712x elapsed=0:00:32.28    \n[out#0/webm @ 00000111152b9b80] video:2445KiB audio:0KiB subtitle:0KiB other streams:0KiB global headers:0KiB muxing overhead: 0.107655%\nframe=  300 fps=9.2 q=19.0 Lsize=    2447KiB time=00:00:02.50 bitrate=8019.4kbits/s speed=0.077x elapsed=0:00:32.46    \n",
  "seconds": 32.603787899017334,
  "probe_out": {}
}